<svg class="diagram-root" style="background: #f5f6f6" xmlns="http://www.w3.org/2000/svg" xmlns:xlink="http://www.w3.org/1999/xlink"><style>.diagram-root { font-family: "Helvetica Neue", sans-serif; font-size: 12px; } .t { overflow: visible; } .t-bg { y: 40; fill: #fff;   } .th { fill: #005aa0;   } .tht { fill: #fff; font-size: 14px;  } .tf { fill: #323c46; overflow: visible; } .tf.pk { fill: #005aa0; font-weight: bold; } .tf.fk { font-weight: bold; } .ty { fill: #adb1b5; font-weight: normal; text-anchor: end; } .r { fill: transparent; stroke: #c3c3c3; stroke-width: 1; } .l { stroke: 1; } .i { fill: #c2c7ce; stroke: #c2c7ce; } .i.ix { fill: #afb3b6; stroke: #000; } .fa { fill: transparent; overflow: visible; } .fa .bg.hover { fill: #f7f7f7; } .c { cy: 12; r: 4; stroke: #d2d2dc; fill: #d2d2dc; } .hr { fill: transparent; stroke: #323c46; stroke-opacity: 0.035; stroke-width: 13; } .dc { stroke: #fa5a3c; fill: #fa5a3c; } .x { stroke: white; stroke-width: 1; } .hl .th { fill: #1b9bff; } .hl .tht {  } .fhl .bg { fill: #e7f4ff; } .fhls .bg {  } .r.hl { stroke: #1b9bff; } .dim { opacity: 0.25; }</style><g class="drawing-wrapper" transform="translate(2, 18) scale(1,1)"><g class="rs"><path d="M 195.17 356 m -1, 0 a 1,1 0 1,0 2,0 a 1,1 0 1,0 -2,0 M 195.17 356 m -0.5, 0 a 0.5,0.5 0 1,0 1,0 a 0.5,0.5 0 1,0 -1,0  M195.17 356 L195.17 356 207.17 356 M 195.17 362 m -1, 0 a 1,1 0 1,0 2,0 a 1,1 0 1,0 -2,0 M 195.17 362 m -0.5, 0 a 0.5,0.5 0 1,0 1,0 a 0.5,0.5 0 1,0 -1,0  M195.17 362 L195.17 362 202.17 356 195.17 350 M 195.17 350 m -1, 0 a 1,1 0 1,0 2,0 a 1,1 0 1,0 -2,0 M 195.17 350 m -0.5, 0 a 0.5,0.5 0 1,0 1,0 a 0.5,0.5 0 1,0 -1,0  M207.17 356 Q 233.63 356, 260.08 354 T 313 352 M 325 352 m -1, 0 a 1,1 0 1,0 2,0 a 1,1 0 1,0 -2,0 M 325 352 m -0.5, 0 a 0.5,0.5 0 1,0 1,0 a 0.5,0.5 0 1,0 -1,0  M325 352 L325 352 313 352 M319 358 L319 358 319 346" id="h1139284389" class="r"></path><path d="M 195.17 381 m -1, 0 a 1,1 0 1,0 2,0 a 1,1 0 1,0 -2,0 M 195.17 381 m -0.5, 0 a 0.5,0.5 0 1,0 1,0 a 0.5,0.5 0 1,0 -1,0  M195.17 381 L195.17 381 207.17 381 M 195.17 387 m -1, 0 a 1,1 0 1,0 2,0 a 1,1 0 1,0 -2,0 M 195.17 387 m -0.5, 0 a 0.5,0.5 0 1,0 1,0 a 0.5,0.5 0 1,0 -1,0  M195.17 387 L195.17 387 202.17 381 195.17 375 M 195.17 375 m -1, 0 a 1,1 0 1,0 2,0 a 1,1 0 1,0 -2,0 M 195.17 375 m -0.5, 0 a 0.5,0.5 0 1,0 1,0 a 0.5,0.5 0 1,0 -1,0  M207.17 381 C 260.36999999999995 381, 259.16999999999996 87, 209.17 87 M 197.17 87 m -1, 0 a 1,1 0 1,0 2,0 a 1,1 0 1,0 -2,0 M 197.17 87 m -0.5, 0 a 0.5,0.5 0 1,0 1,0 a 0.5,0.5 0 1,0 -1,0  M197.17 87 L197.17 87 209.17 87 M203.17 93 L203.17 93 203.17 81" id="h1607168654" class="r"></path><path d="M 331 98 m -1, 0 a 1,1 0 1,0 2,0 a 1,1 0 1,0 -2,0 M 331 98 m -0.5, 0 a 0.5,0.5 0 1,0 1,0 a 0.5,0.5 0 1,0 -1,0  M331 98 L331 98 319 98 M 331 104 m -1, 0 a 1,1 0 1,0 2,0 a 1,1 0 1,0 -2,0 M 331 104 m -0.5, 0 a 0.5,0.5 0 1,0 1,0 a 0.5,0.5 0 1,0 -1,0  M331 104 L331 104 324 98 331 92 M 331 92 m -1, 0 a 1,1 0 1,0 2,0 a 1,1 0 1,0 -2,0 M 331 92 m -0.5, 0 a 0.5,0.5 0 1,0 1,0 a 0.5,0.5 0 1,0 -1,0  M319 98 Q 291.54 98, 264.08 92.5 T 209.17 87 M 197.17 87 m -1, 0 a 1,1 0 1,0 2,0 a 1,1 0 1,0 -2,0 M 197.17 87 m -0.5, 0 a 0.5,0.5 0 1,0 1,0 a 0.5,0.5 0 1,0 -1,0  M197.17 87 L197.17 87 209.17 87 M203.17 93 L203.17 93 203.17 81" id="h1397587031" class="r"></path><path d="M 331 123 m -1, 0 a 1,1 0 1,0 2,0 a 1,1 0 1,0 -2,0 M 331 123 m -0.5, 0 a 0.5,0.5 0 1,0 1,0 a 0.5,0.5 0 1,0 -1,0  M331 123 L331 123 319 123 M 331 129 m -1, 0 a 1,1 0 1,0 2,0 a 1,1 0 1,0 -2,0 M 331 129 m -0.5, 0 a 0.5,0.5 0 1,0 1,0 a 0.5,0.5 0 1,0 -1,0  M331 129 L331 129 324 123 331 117 M 331 117 m -1, 0 a 1,1 0 1,0 2,0 a 1,1 0 1,0 -2,0 M 331 117 m -0.5, 0 a 0.5,0.5 0 1,0 1,0 a 0.5,0.5 0 1,0 -1,0  M319 123 C 259.4 123, 263 352, 313 352 M 325 352 m -1, 0 a 1,1 0 1,0 2,0 a 1,1 0 1,0 -2,0 M 325 352 m -0.5, 0 a 0.5,0.5 0 1,0 1,0 a 0.5,0.5 0 1,0 -1,0  M325 352 L325 352 313 352 M319 358 L319 358 319 346" id="h2286254435" class="r"></path><path d="M 610 368 m -1, 0 a 1,1 0 1,0 2,0 a 1,1 0 1,0 -2,0 M 610 368 m -0.5, 0 a 0.5,0.5 0 1,0 1,0 a 0.5,0.5 0 1,0 -1,0  M610 368 L610 368 598 368 M 610 374 m -1, 0 a 1,1 0 1,0 2,0 a 1,1 0 1,0 -2,0 M 610 374 m -0.5, 0 a 0.5,0.5 0 1,0 1,0 a 0.5,0.5 0 1,0 -1,0  M610 374 L610 374 603 368 610 362 M 610 362 m -1, 0 a 1,1 0 1,0 2,0 a 1,1 0 1,0 -2,0 M 610 362 m -0.5, 0 a 0.5,0.5 0 1,0 1,0 a 0.5,0.5 0 1,0 -1,0  M598 368 Q 572.7 368, 547.41 360 T 496.81 352 M 484.81 352 m -1, 0 a 1,1 0 1,0 2,0 a 1,1 0 1,0 -2,0 M 484.81 352 m -0.5, 0 a 0.5,0.5 0 1,0 1,0 a 0.5,0.5 0 1,0 -1,0  M484.81 352 L484.81 352 496.81 352 M490.81 358 L490.81 358 490.81 346" id="h3177548053" class="r"></path><path d="M 782 171 m -1, 0 a 1,1 0 1,0 2,0 a 1,1 0 1,0 -2,0 M 782 171 m -0.5, 0 a 0.5,0.5 0 1,0 1,0 a 0.5,0.5 0 1,0 -1,0  M782 171 L782 171 770 171 M 782 177 m -1, 0 a 1,1 0 1,0 2,0 a 1,1 0 1,0 -2,0 M 782 177 m -0.5, 0 a 0.5,0.5 0 1,0 1,0 a 0.5,0.5 0 1,0 -1,0  M782 177 L782 177 775 171 782 165 M 782 165 m -1, 0 a 1,1 0 1,0 2,0 a 1,1 0 1,0 -2,0 M 782 165 m -0.5, 0 a 0.5,0.5 0 1,0 1,0 a 0.5,0.5 0 1,0 -1,0  M770 171 Q 701.71 171, 633.41 261.5 T 496.81 352 M 484.81 352 m -1, 0 a 1,1 0 1,0 2,0 a 1,1 0 1,0 -2,0 M 484.81 352 m -0.5, 0 a 0.5,0.5 0 1,0 1,0 a 0.5,0.5 0 1,0 -1,0  M484.81 352 L484.81 352 496.81 352 M490.81 358 L490.81 358 490.81 346" id="h3000826536" class="r"></path></g><g class="hrs"></g><g class="ts"><svg width="167.17" height="100" x="30" y="30" id="h475896179" class="t"><rect height="40" width="167.17" class="th"></rect><text x="13" y="25" class="tht">departments</text><rect height="60" width="167.17" class="t-bg" y="40"></rect><text x="13" y="61" class="tf pk">dept_no<tspan x="154.17" class="ty">VARCHAR</tspan></text><path d="M7,14A2,2 0 0,1 5,12A2,2 0 0,1 7,10A2,2 0 0,1 9,12A2,2 0 0,1 7,14M12.65,10C11.83,7.67 9.61,6 7, 6A6, 6 0 0, 0 1, 12A6, 6 0 0, 0 7, 18C9.61, 18 11.83, 16.33 12.65, 14H17V18H21V14H23V10H12.65Z" class="i pk" transform="translate(76.37898437499999, 48) scale(0.65)"></path><text x="13" y="86" class="tf">dept_name<tspan x="154.17" class="ty">VARCHAR</tspan></text></svg><svg width="147.17" height="150" x="48" y="299" id="h1090417462" class="t"><rect height="40" width="147.17" class="th"></rect><text x="13" y="25" class="tht">dept_emp</text><rect height="110" width="147.17" class="t-bg" y="40"></rect><text x="13" y="61" class="tf fk">emp_no<tspan x="134.17" class="ty">INT</tspan></text><text x="13" y="86" class="tf fk">dept_no<tspan x="134.17" class="ty">VARCHAR</tspan></text><text x="13" y="111" class="tf">from_date<tspan x="134.17" class="ty">DATE</tspan></text><text x="13" y="136" class="tf">to_date<tspan x="134.17" class="ty">DATE</tspan></text></svg><svg width="159.81" height="200" x="325" y="295" id="h1639608377" class="t"><rect height="40" width="159.81" class="th"></rect><text x="13" y="25" class="tht">employees</text><rect height="160" width="159.81" class="t-bg" y="40"></rect><text x="13" y="61" class="tf pk">emp_no<tspan x="146.81" class="ty">INT</tspan></text><path d="M7,14A2,2 0 0,1 5,12A2,2 0 0,1 7,10A2,2 0 0,1 9,12A2,2 0 0,1 7,14M12.65,10C11.83,7.67 9.61,6 7, 6A6, 6 0 0, 0 1, 12A6, 6 0 0, 0 7, 18C9.61, 18 11.83, 16.33 12.65, 14H17V18H21V14H23V10H12.65Z" class="i pk" transform="translate(107.479921875, 48) scale(0.65)"></path><text x="13" y="86" class="tf">birth_date<tspan x="146.81" class="ty">DATE</tspan></text><text x="13" y="111" class="tf">first_name<tspan x="146.81" class="ty">VARCHAR</tspan></text><text x="13" y="136" class="tf">last_name<tspan x="146.81" class="ty">VARCHAR</tspan></text><text x="13" y="161" class="tf">gender<tspan x="146.81" class="ty">VARCHAR</tspan></text><text x="13" y="186" class="tf">hire_date<tspan x="146.81" class="ty">DATE</tspan></text></svg><svg width="147.17" height="150" x="331" y="41" id="h1676682957" class="t"><rect height="40" width="147.17" class="th"></rect><text x="13" y="25" class="tht">dept_manager</text><rect height="110" width="147.17" class="t-bg" y="40"></rect><text x="13" y="61" class="tf fk">dept_no<tspan x="134.17" class="ty">VARCHAR</tspan></text><text x="13" y="86" class="tf fk">emp_no<tspan x="134.17" class="ty">INT</tspan></text><text x="13" y="111" class="tf">from_date<tspan x="134.17" class="ty">DATE</tspan></text><text x="13" y="136" class="tf">to_date<tspan x="134.17" class="ty">DATE</tspan></text></svg><svg width="131.15" height="150" x="610" y="311" id="h2472833127" class="t"><rect height="40" width="131.15" class="th"></rect><text x="13" y="25" class="tht">salaries</text><rect height="110" width="131.15" class="t-bg" y="40"></rect><text x="13" y="61" class="tf fk">emp_no<tspan x="118.15" class="ty">INT</tspan></text><text x="13" y="86" class="tf">salary<tspan x="118.15" class="ty">INT</tspan></text><text x="13" y="111" class="tf">from_date<tspan x="118.15" class="ty">DATE</tspan></text><text x="13" y="136" class="tf">to_date<tspan x="118.15" class="ty">DATE</tspan></text></svg><svg width="131.15" height="150" x="782" y="114" id="h311790747" class="t"><rect height="40" width="131.15" class="th"></rect><text x="13" y="25" class="tht">titles</text><rect height="110" width="131.15" class="t-bg" y="40"></rect><text x="13" y="61" class="tf fk">emp_no<tspan x="118.15" class="ty">INT</tspan></text><text x="13" y="86" class="tf">title<tspan x="118.15" class="ty">VARCHAR</tspan></text><text x="13" y="111" class="tf">from_date<tspan x="118.15" class="ty">DATE</tspan></text><text x="13" y="136" class="tf">to_date<tspan x="118.15" class="ty">DATE</tspan></text></svg></g></g><text class="qdbd-link" x="10" y="20">www.quickdatabasediagrams.com</text></svg>